<svg width="32" height="32" viewBox="0 0 32 32" fill="none" xmlns="http://www.w3.org/2000/svg">
  <!-- Círculo de fundo -->
  <circle cx="16" cy="16" r="16" fill="#4CAF50"/>
  
  <!-- Folha estilizada -->
  <path d="M16 6C11.5817 6 8 9.58172 8 14C8 17.4183 10.2091 20.3386 13.3333 21.4675V26H18.6667V21.4675C21.7909 20.3386 24 17.4183 24 14C24 9.58172 20.4183 6 16 6Z" fill="white"/>
  
  <!-- Detalhes da folha -->
  <path d="M16 8C12.6863 8 10 10.6863 10 14C10 16.5673 11.7164 18.7445 14 19.5V24H18V19.5C20.2836 18.7445 22 16.5673 22 14C22 10.6863 19.3137 8 16 8Z" fill="#81C784"/>
  
  <!-- Caule -->
  <rect x="15" y="19" width="2" height="5" fill="#2E7D32"/>
</svg> 